solid OpenSCAD_Model
  facet normal 0.998027 0.0543775 0.0313949
    outer loop
      vertex 5.85348 -3.1096 6.86492
      vertex 5.8711 0.530434 0
      vertex 5.85348 0.853862 0
    endloop
  endfacet
  facet normal 0.998027 0.054378 0.0313951
    outer loop
      vertex 5.8711 0.530434 0
      vertex 5.85348 -3.1096 6.86492
      vertex 5.9 -3.75 6.49519
    endloop
  endfacet
  facet normal 0.998027 -0.0543773 -0.0313948
    outer loop
      vertex 5.9 -3.75 6.49519
      vertex 5.88073 -0.353623 0
      vertex 5.9 -3.00856e-07 0
    endloop
  endfacet
  facet normal 0.998027 -0.054378 -0.0313951
    outer loop
      vertex 5.88073 -0.353623 0
      vertex 5.9 -3.75 6.49519
      vertex 5.85348 -4.3904 6.12546
    endloop
  endfacet
  facet normal 0.770513 -0.552025 -0.318712
    outer loop
      vertex 4.7732 -6.75332 4.76122
      vertex 4.30091 -4.66364 0
      vertex 4.7732 -4.00442 0
    endloop
  endfacet
  facet normal 0.770513 -0.552025 -0.318712
    outer loop
      vertex 4.30091 -4.66364 0
      vertex 4.7732 -6.75332 4.76122
      vertex 4.30091 -7.24773 4.47578
    endloop
  endfacet
  facet normal 0 0.866025 0.5
    outer loop
      vertex 0.370463 6.79929 0
      vertex -0.370463 2.46916 7.5
      vertex 0.370463 2.46916 7.5
    endloop
  endfacet
  facet normal 0 0.866025 0.5
    outer loop
      vertex -0.370463 2.46916 7.5
      vertex 0.370463 6.79929 0
      vertex -0.370463 6.79929 0
    endloop
  endfacet
  facet normal 2.97041e-07 -0.5 0.866025
    outer loop
      vertex 5.53842 -2.00962 7.5
      vertex 5.1371 -2.00962 7.5
      vertex 5.71464 -2.47931 7.22883
    endloop
  endfacet
  facet normal -3.11771e-06 -0.500001 0.866025
    outer loop
      vertex -4.7732 -6.75332 4.76122
      vertex -5.48568 -5.63095 5.40922
      vertex -5.17021 -6.21154 5.07402
    endloop
  endfacet
  facet normal -0.904827 -0.368735 -0.212889
    outer loop
      vertex -5.17021 -3.28206 0
      vertex -5.48568 -5.63095 5.40922
      vertex -5.48568 -2.50793 0
    endloop
  endfacet
  facet normal -0.904827 -0.368735 -0.212889
    outer loop
      vertex -5.48568 -5.63095 5.40922
      vertex -5.17021 -3.28206 0
      vertex -5.17021 -6.21154 5.07402
    endloop
  endfacet
  facet normal -0.587785 -0.700629 -0.404509
    outer loop
      vertex -3.53162 -5.44157 0
      vertex -3.16138 -8.06414 4.00442
      vertex -3.7608 -7.68698 4.22218
    endloop
  endfacet
  facet normal -0.587785 -0.70063 -0.404509
    outer loop
      vertex -3.16138 -8.06414 4.00442
      vertex -3.53162 -5.44157 0
      vertex -3.16138 -5.75218 0
    endloop
  endfacet
  facet normal -0.587786 -0.700629 -0.404508
    outer loop
      vertex -3.53162 -5.44157 0
      vertex -3.7608 -7.68698 4.22218
      vertex -3.7608 -5.2493 0
    endloop
  endfacet
  facet normal 0 -0.5 0.866025
    outer loop
      vertex 3.16138 -8.06414 4.00442
      vertex -0.370463 -8.84947 3.55101
      vertex 0.370463 -8.84947 3.55101
    endloop
  endfacet
  facet normal 0 -0.5 0.866025
    outer loop
      vertex -0.370463 -8.84947 3.55101
      vertex 3.16138 -8.06414 4.00442
      vertex -3.16138 -8.06414 4.00442
    endloop
  endfacet
  facet normal -3.5952e-07 -0.5 0.866025
    outer loop
      vertex -5.71464 -2.47931 7.22883
      vertex -5.85348 -3.1096 6.86492
      vertex -4.7732 -6.75332 4.76122
    endloop
  endfacet
  facet normal 0.844328 0.464039 0.267913
    outer loop
      vertex 5.15448 -1.01946 7.5
      vertex 5.17021 3.28206 0
      vertex 4.87124 3.82603 0
    endloop
  endfacet
  facet normal 0.844327 0.46404 0.267914
    outer loop
      vertex 5.17021 3.28206 0
      vertex 5.15448 -1.01946 7.5
      vertex 5.17021 -1.04807 7.5
    endloop
  endfacet
  facet normal 1.14225e-06 -0.500005 0.866023
    outer loop
      vertex 1.8232 -8.60947 3.68957
      vertex 0.370463 -8.84947 3.55101
      vertex 1.10555 -8.76904 3.59744
    endloop
  endfacet
  facet normal -1.08066e-07 -0.5 0.866025
    outer loop
      vertex -5.71464 -2.47931 7.22883
      vertex -1.82774 -2.00962 7.5
      vertex -5.1371 -2.00962 7.5
    endloop
  endfacet
  facet normal -1.157e-07 -0.5 0.866025
    outer loop
      vertex -1.82774 -2.00962 7.5
      vertex -5.71464 -2.47931 7.22883
      vertex -3.16138 -8.06414 4.00442
    endloop
  endfacet
  facet normal 0.587786 0.700629 0.404508
    outer loop
      vertex 3.7608 5.2493 0
      vertex 3.16138 1.42205 7.5
      vertex 3.7608 0.919173 7.5
    endloop
  endfacet
  facet normal 0.587786 0.700629 0.404508
    outer loop
      vertex 3.16138 1.42205 7.5
      vertex 3.7608 5.2493 0
      vertex 3.16138 5.75218 0
    endloop
  endfacet
  facet normal 1.4001e-05 -0.5 0.866025
    outer loop
      vertex 5.85348 -3.1096 6.86492
      vertex 5.85348 -4.3904 6.12546
      vertex 5.9 -3.75 6.49519
    endloop
  endfacet
  facet normal 0.844328 -0.46404 -0.267913
    outer loop
      vertex 4.95301 -3.67726 0
      vertex 4.7732 -6.75332 4.76122
      vertex 4.7732 -4.00442 0
    endloop
  endfacet
  facet normal -0.684547 -0.631305 -0.364484
    outer loop
      vertex -3.7608 -5.2493 0
      vertex -4.30091 -7.24773 4.47578
      vertex -4.30091 -4.66364 0
    endloop
  endfacet
  facet normal -0.684547 -0.631305 -0.364484
    outer loop
      vertex -4.30091 -7.24773 4.47578
      vertex -3.7608 -5.2493 0
      vertex -3.7608 -7.68698 4.22218
    endloop
  endfacet
  facet normal -0.770513 0.552025 0.318712
    outer loop
      vertex -4.7732 4.00442 0
      vertex -4.30091 0.33351 7.5
      vertex -4.30091 4.66364 0
    endloop
  endfacet
  facet normal -0.770513 0.552025 0.318712
    outer loop
      vertex -4.30091 0.33351 7.5
      vertex -4.7732 4.00442 0
      vertex -4.7732 -0.325703 7.5
    endloop
  endfacet
  facet normal -2.07928e-07 -0.5 0.866025
    outer loop
      vertex -3.16138 -8.06414 4.00442
      vertex -5.71464 -2.47931 7.22883
      vertex -4.7732 -6.75332 4.76122
    endloop
  endfacet
  facet normal -1.41576e-06 -0.5 0.866025
    outer loop
      vertex -4.7732 -6.75332 4.76122
      vertex -5.85348 -4.3904 6.12546
      vertex -5.71464 -5.02069 5.76155
    endloop
  endfacet
  facet normal -0.368124 -0.80521 -0.464889
    outer loop
      vertex -1.8232 -8.60947 3.68957
      vertex -2.06099 -6.37058 0
      vertex -1.8232 -6.47929 0
    endloop
  endfacet
  facet normal 0.481753 0.758904 0.438154
    outer loop
      vertex 3.16138 5.75218 0
      vertex 2.5121 1.83422 7.5
      vertex 3.16138 1.42205 7.5
    endloop
  endfacet
  facet normal 0.481753 0.758904 0.438153
    outer loop
      vertex 2.5121 1.83422 7.5
      vertex 3.16138 5.75218 0
      vertex 2.5121 6.16435 0
    endloop
  endfacet
  facet normal 3.5952e-07 -0.5 0.866025
    outer loop
      vertex 5.71464 -2.47931 7.22883
      vertex 4.7732 -6.75332 4.76122
      vertex 5.85348 -3.1096 6.86492
    endloop
  endfacet
  facet normal 0.368125 0.80521 0.464888
    outer loop
      vertex 2.5121 6.16435 0
      vertex 1.8232 2.14917 7.5
      vertex 2.5121 1.83422 7.5
    endloop
  endfacet
  facet normal 0.368125 0.80521 0.464888
    outer loop
      vertex 1.8232 2.14917 7.5
      vertex 2.5121 6.16435 0
      vertex 1.8232 6.47929 0
    endloop
  endfacet
  facet normal 3.11771e-06 -0.500001 0.866025
    outer loop
      vertex 5.48568 -5.63095 5.40922
      vertex 4.7732 -6.75332 4.76122
      vertex 5.17021 -6.21154 5.07402
    endloop
  endfacet
  facet normal 4.55775e-08 -0.500001 0.866025
    outer loop
      vertex 3.16138 -8.06414 4.00442
      vertex 0.370463 -8.84947 3.55101
      vertex 2.5121 -8.37326 3.82595
    endloop
  endfacet
  facet normal 7.12462e-06 -0.500007 0.866022
    outer loop
      vertex 4.30091 -7.24773 4.47578
      vertex 3.16138 -8.06414 4.00442
      vertex 3.7608 -7.68698 4.22218
    endloop
  endfacet
  facet normal -0.982287 -0.162277 -0.0936906
    outer loop
      vertex -5.71464 -1.69426 0
      vertex -5.85348 -4.3904 6.12546
      vertex -5.85348 -0.853862 0
    endloop
  endfacet
  facet normal -0.982287 -0.162277 -0.0936906
    outer loop
      vertex -5.85348 -4.3904 6.12546
      vertex -5.71464 -1.69426 0
      vertex -5.71464 -5.02069 5.76155
    endloop
  endfacet
  facet normal -1.63474e-06 -0.5 0.866025
    outer loop
      vertex -4.7732 -6.75332 4.76122
      vertex -5.71464 -5.02069 5.76155
      vertex -5.48568 -5.63095 5.40922
    endloop
  endfacet
  facet normal -0.904827 0.368735 0.212889
    outer loop
      vertex -5.39398 2.73296 0
      vertex -5.17021 -1.04807 7.5
      vertex -5.17021 3.28206 0
    endloop
  endfacet
  facet normal -0.904826 0.368737 0.21289
    outer loop
      vertex -5.17021 -1.04807 7.5
      vertex -5.39398 2.73296 0
      vertex -5.18198 -1.07695 7.5
    endloop
  endfacet
  facet normal 0 -0.5 0.866025
    outer loop
      vertex -1.82774 -2.00962 7.5
      vertex 3.16138 -8.06414 4.00442
      vertex 1.82774 -2.00962 7.5
    endloop
  endfacet
  facet normal 0 -0.5 0.866025
    outer loop
      vertex 3.16138 -8.06414 4.00442
      vertex -1.82774 -2.00962 7.5
      vertex -3.16138 -8.06414 4.00442
    endloop
  endfacet
  facet normal 0.844328 0.46404 0.267914
    outer loop
      vertex 4.7732 -0.325703 7.5
      vertex 4.87124 3.82603 0
      vertex 4.7732 4.00442 0
    endloop
  endfacet
  facet normal 0.844328 0.464039 0.267913
    outer loop
      vertex 4.87124 3.82603 0
      vertex 4.7732 -0.325703 7.5
      vertex 5.15448 -1.01946 7.5
    endloop
  endfacet
  facet normal 0.770513 0.552025 0.318712
    outer loop
      vertex 4.30091 0.33351 7.5
      vertex 4.7732 4.00442 0
      vertex 4.30091 4.66364 0
    endloop
  endfacet
  facet normal 0.770513 0.552025 0.318712
    outer loop
      vertex 4.7732 4.00442 0
      vertex 4.30091 0.33351 7.5
      vertex 4.7732 -0.325703 7.5
    endloop
  endfacet
  facet normal -0.368125 -0.80521 -0.464888
    outer loop
      vertex -2.5121 -6.16434 0
      vertex -1.8232 -8.60947 3.68957
      vertex -2.5121 -8.37326 3.82595
    endloop
  endfacet
  facet normal -0.368125 -0.80521 -0.464888
    outer loop
      vertex -1.8232 -8.60947 3.68957
      vertex -2.5121 -6.16434 0
      vertex -2.06099 -6.37058 0
    endloop
  endfacet
  facet normal 0 -0.866025 -0.5
    outer loop
      vertex -0.370463 -6.79929 0
      vertex 0.370463 -8.84947 3.55101
      vertex -0.370463 -8.84947 3.55101
    endloop
  endfacet
  facet normal 0 -0.866025 -0.5
    outer loop
      vertex 0.370463 -8.84947 3.55101
      vertex -0.370463 -6.79929 0
      vertex 0.370463 -6.79929 0
    endloop
  endfacet
  facet normal -0.770513 -0.552025 -0.318712
    outer loop
      vertex -4.30091 -4.66364 0
      vertex -4.7732 -6.75332 4.76122
      vertex -4.7732 -4.00442 0
    endloop
  endfacet
  facet normal -0.770513 -0.552025 -0.318712
    outer loop
      vertex -4.7732 -6.75332 4.76122
      vertex -4.30091 -4.66364 0
      vertex -4.30091 -7.24773 4.47578
    endloop
  endfacet
  facet normal 1.08066e-07 -0.5 0.866025
    outer loop
      vertex 1.82774 -2.00962 7.5
      vertex 5.71464 -2.47931 7.22883
      vertex 5.1371 -2.00962 7.5
    endloop
  endfacet
  facet normal 1.157e-07 -0.5 0.866025
    outer loop
      vertex 5.71464 -2.47931 7.22883
      vertex 1.82774 -2.00962 7.5
      vertex 3.16138 -8.06414 4.00442
    endloop
  endfacet
  facet normal 0.998027 0.0543782 0.0313953
    outer loop
      vertex 5.9 -3.00856e-07 0
      vertex 5.8711 0.530434 0
      vertex 5.9 -3.75 6.49519
    endloop
  endfacet
  facet normal 0.998027 -0.0543785 -0.0313954
    outer loop
      vertex 5.88073 -0.353623 0
      vertex 5.85348 -4.3904 6.12546
      vertex 5.85348 -0.853862 0
    endloop
  endfacet
  facet normal 1.41576e-06 -0.5 0.866025
    outer loop
      vertex 5.85348 -4.3904 6.12546
      vertex 4.7732 -6.75332 4.76122
      vertex 5.71464 -5.02069 5.76155
    endloop
  endfacet
  facet normal 0.982287 -0.162277 -0.0936906
    outer loop
      vertex 5.85348 -4.3904 6.12546
      vertex 5.71464 -1.69426 0
      vertex 5.85348 -0.853862 0
    endloop
  endfacet
  facet normal 0.982287 -0.162277 -0.0936906
    outer loop
      vertex 5.71464 -1.69426 0
      vertex 5.85348 -4.3904 6.12546
      vertex 5.71464 -5.02069 5.76155
    endloop
  endfacet
  facet normal 9.31062e-07 -0.5 0.866025
    outer loop
      vertex 5.85348 -3.1096 6.86492
      vertex 4.7732 -6.75332 4.76122
      vertex 5.85348 -4.3904 6.12546
    endloop
  endfacet
  facet normal 2.07928e-07 -0.5 0.866025
    outer loop
      vertex 5.71464 -2.47931 7.22883
      vertex 3.16138 -8.06414 4.00442
      vertex 4.7732 -6.75332 4.76122
    endloop
  endfacet
  facet normal 4.45889e-06 -0.500004 0.866023
    outer loop
      vertex 4.7732 -6.75332 4.76122
      vertex 3.16138 -8.06414 4.00442
      vertex 4.30091 -7.24773 4.47578
    endloop
  endfacet
  facet normal 0.684547 -0.631305 -0.364484
    outer loop
      vertex 4.30091 -7.24773 4.47578
      vertex 3.7608 -5.2493 0
      vertex 4.30091 -4.66364 0
    endloop
  endfacet
  facet normal 0.684547 -0.631305 -0.364484
    outer loop
      vertex 3.7608 -5.2493 0
      vertex 4.30091 -7.24773 4.47578
      vertex 3.7608 -7.68698 4.22218
    endloop
  endfacet
  facet normal -0.125334 0.859196 0.496057
    outer loop
      vertex -0.370463 6.79929 0
      vertex -1.10555 2.36193 7.5
      vertex -0.370463 2.46916 7.5
    endloop
  endfacet
  facet normal -0.125334 0.859196 0.496057
    outer loop
      vertex -1.10555 2.36193 7.5
      vertex -0.370463 6.79929 0
      vertex -1.10555 6.69206 0
    endloop
  endfacet
  facet normal -0.998027 0.0543773 0.0313948
    outer loop
      vertex -5.9 2.71349e-07 0
      vertex -5.85348 -3.1096 6.86492
      vertex -5.88201 0.330265 0
    endloop
  endfacet
  facet normal -0.998027 0.054378 0.0313951
    outer loop
      vertex -5.85348 -3.1096 6.86492
      vertex -5.9 2.71349e-07 0
      vertex -5.9 -3.75 6.49519
    endloop
  endfacet
  facet normal -9.31062e-07 -0.5 0.866025
    outer loop
      vertex -5.85348 -3.1096 6.86492
      vertex -5.85348 -4.3904 6.12546
      vertex -4.7732 -6.75332 4.76122
    endloop
  endfacet
  facet normal -0.587786 0.700629 0.404508
    outer loop
      vertex -3.16138 5.75218 0
      vertex -3.7608 0.919173 7.5
      vertex -3.16138 1.42205 7.5
    endloop
  endfacet
  facet normal -0.587786 0.700629 0.404508
    outer loop
      vertex -3.7608 0.919173 7.5
      vertex -3.16138 5.75218 0
      vertex -3.7608 5.2493 0
    endloop
  endfacet
  facet normal -0.248689 0.838818 0.484292
    outer loop
      vertex -1.10555 6.69206 0
      vertex -1.8232 2.14917 7.5
      vertex -1.10555 2.36193 7.5
    endloop
  endfacet
  facet normal -0.248689 0.838818 0.484292
    outer loop
      vertex -1.8232 2.14917 7.5
      vertex -1.10555 6.69206 0
      vertex -1.8232 6.47929 0
    endloop
  endfacet
  facet normal 0.684547 0.631305 0.364484
    outer loop
      vertex 4.24908 0.389718 7.5
      vertex 4.30091 4.66364 0
      vertex 3.8659 5.13534 0
    endloop
  endfacet
  facet normal 0.684547 0.631305 0.364484
    outer loop
      vertex 4.30091 4.66364 0
      vertex 4.24908 0.389718 7.5
      vertex 4.30091 0.33351 7.5
    endloop
  endfacet
  facet normal 0.684547 0.631306 0.364485
    outer loop
      vertex 3.7608 0.919173 7.5
      vertex 3.8659 5.13534 0
      vertex 3.7608 5.2493 0
    endloop
  endfacet
  facet normal 0.684546 0.631306 0.364485
    outer loop
      vertex 3.8659 5.13534 0
      vertex 3.7608 0.919173 7.5
      vertex 4.24908 0.389718 7.5
    endloop
  endfacet
  facet normal 0.368124 -0.80521 -0.464889
    outer loop
      vertex 2.06099 -6.37058 0
      vertex 1.8232 -8.60947 3.68957
      vertex 1.8232 -6.47929 0
    endloop
  endfacet
  facet normal 5.59491e-07 -0.500002 0.866024
    outer loop
      vertex 2.5121 -8.37326 3.82595
      vertex 0.370463 -8.84947 3.55101
      vertex 1.8232 -8.60947 3.68957
    endloop
  endfacet
  facet normal -0.248689 -0.838818 -0.484292
    outer loop
      vertex -1.8232 -6.47929 0
      vertex -1.10555 -8.76904 3.59744
      vertex -1.8232 -8.60947 3.68957
    endloop
  endfacet
  facet normal -0.248689 -0.838818 -0.484292
    outer loop
      vertex -1.10555 -8.76904 3.59744
      vertex -1.8232 -6.47929 0
      vertex -1.10555 -6.69206 0
    endloop
  endfacet
  facet normal -0.481753 -0.758904 -0.438153
    outer loop
      vertex -3.16138 -5.75218 0
      vertex -2.5121 -8.37326 3.82595
      vertex -3.16138 -8.06414 4.00442
    endloop
  endfacet
  facet normal -0.481753 -0.758904 -0.438153
    outer loop
      vertex -2.5121 -8.37326 3.82595
      vertex -3.16138 -5.75218 0
      vertex -2.5121 -6.16434 0
    endloop
  endfacet
  facet normal -0.844328 -0.46404 -0.267913
    outer loop
      vertex -4.7732 -6.75332 4.76122
      vertex -4.95301 -3.67726 0
      vertex -4.7732 -4.00442 0
    endloop
  endfacet
  facet normal -0.844328 -0.46404 -0.267913
    outer loop
      vertex -4.95301 -3.67726 0
      vertex -5.17021 -6.21154 5.07402
      vertex -5.17021 -3.28206 0
    endloop
  endfacet
  facet normal -0.844328 -0.464039 -0.267913
    outer loop
      vertex -5.17021 -6.21154 5.07402
      vertex -4.95301 -3.67726 0
      vertex -4.7732 -6.75332 4.76122
    endloop
  endfacet
  facet normal -0.998027 0.0543785 0.0313954
    outer loop
      vertex -5.85348 0.853862 0
      vertex -5.88201 0.330265 0
      vertex -5.85348 -3.1096 6.86492
    endloop
  endfacet
  facet normal -7.12462e-06 -0.500007 0.866022
    outer loop
      vertex -3.16138 -8.06414 4.00442
      vertex -4.30091 -7.24773 4.47578
      vertex -3.7608 -7.68698 4.22218
    endloop
  endfacet
  facet normal -4.45889e-06 -0.500004 0.866023
    outer loop
      vertex -3.16138 -8.06414 4.00442
      vertex -4.7732 -6.75332 4.76122
      vertex -4.30091 -7.24773 4.47578
    endloop
  endfacet
  facet normal 0.248689 0.838818 0.484292
    outer loop
      vertex 1.8232 6.47929 0
      vertex 1.10555 2.36193 7.5
      vertex 1.8232 2.14917 7.5
    endloop
  endfacet
  facet normal 0.248689 0.838818 0.484292
    outer loop
      vertex 1.10555 2.36193 7.5
      vertex 1.8232 6.47929 0
      vertex 1.10555 6.69206 0
    endloop
  endfacet
  facet normal 0.125334 0.859196 0.496057
    outer loop
      vertex 1.10555 6.69206 0
      vertex 0.370463 2.46916 7.5
      vertex 1.10555 2.36193 7.5
    endloop
  endfacet
  facet normal 0.125334 0.859196 0.496057
    outer loop
      vertex 0.370463 2.46916 7.5
      vertex 1.10555 6.69206 0
      vertex 0.370463 6.79929 0
    endloop
  endfacet
  facet normal 0.982287 0.162277 0.0936906
    outer loop
      vertex 5.71464 -2.47931 7.22883
      vertex 5.85348 0.853862 0
      vertex 5.71464 1.69426 0
    endloop
  endfacet
  facet normal 0.982287 0.162277 0.0936906
    outer loop
      vertex 5.85348 0.853862 0
      vertex 5.71464 -2.47931 7.22883
      vertex 5.85348 -3.1096 6.86492
    endloop
  endfacet
  facet normal 0.951056 0.267617 0.154509
    outer loop
      vertex 5.71464 1.69426 0
      vertex 5.5566 2.25589 0
      vertex 5.71464 -2.47931 7.22883
    endloop
  endfacet
  facet normal 1.63474e-06 -0.5 0.866025
    outer loop
      vertex 5.71464 -5.02069 5.76155
      vertex 4.7732 -6.75332 4.76122
      vertex 5.48568 -5.63095 5.40922
    endloop
  endfacet
  facet normal 0.951056 -0.267617 -0.154509
    outer loop
      vertex 5.71464 -5.02069 5.76155
      vertex 5.48568 -2.50793 0
      vertex 5.71464 -1.69426 0
    endloop
  endfacet
  facet normal 0.951056 -0.267617 -0.154509
    outer loop
      vertex 5.48568 -2.50793 0
      vertex 5.71464 -5.02069 5.76155
      vertex 5.48568 -5.63095 5.40922
    endloop
  endfacet
  facet normal 0.844328 -0.46404 -0.267913
    outer loop
      vertex 5.17021 -6.21154 5.07402
      vertex 4.95301 -3.67726 0
      vertex 5.17021 -3.28206 0
    endloop
  endfacet
  facet normal 0.844328 -0.464039 -0.267913
    outer loop
      vertex 4.95301 -3.67726 0
      vertex 5.17021 -6.21154 5.07402
      vertex 4.7732 -6.75332 4.76122
    endloop
  endfacet
  facet normal 0.904827 -0.368735 -0.212889
    outer loop
      vertex 5.48568 -5.63095 5.40922
      vertex 5.17021 -3.28206 0
      vertex 5.48568 -2.50793 0
    endloop
  endfacet
  facet normal 0.904827 -0.368735 -0.212889
    outer loop
      vertex 5.17021 -3.28206 0
      vertex 5.48568 -5.63095 5.40922
      vertex 5.17021 -6.21154 5.07402
    endloop
  endfacet
  facet normal -0.844328 0.46404 0.267914
    outer loop
      vertex -4.87124 3.82603 0
      vertex -4.7732 -0.325703 7.5
      vertex -4.7732 4.00442 0
    endloop
  endfacet
  facet normal -0.844328 0.464039 0.267913
    outer loop
      vertex -4.7732 -0.325703 7.5
      vertex -4.87124 3.82603 0
      vertex -5.15448 -1.01946 7.5
    endloop
  endfacet
  facet normal -0.844328 0.464039 0.267913
    outer loop
      vertex -5.17021 3.28206 0
      vertex -5.15448 -1.01946 7.5
      vertex -4.87124 3.82603 0
    endloop
  endfacet
  facet normal -0.844327 0.46404 0.267914
    outer loop
      vertex -5.15448 -1.01946 7.5
      vertex -5.17021 3.28206 0
      vertex -5.17021 -1.04807 7.5
    endloop
  endfacet
  facet normal -0.368125 0.80521 0.464888
    outer loop
      vertex -1.8232 6.47929 0
      vertex -2.5121 1.83422 7.5
      vertex -1.8232 2.14917 7.5
    endloop
  endfacet
  facet normal -0.368125 0.80521 0.464888
    outer loop
      vertex -2.5121 1.83422 7.5
      vertex -1.8232 6.47929 0
      vertex -2.5121 6.16435 0
    endloop
  endfacet
  facet normal 0.904827 0.368735 0.212889
    outer loop
      vertex 5.17021 -1.04807 7.5
      vertex 5.39398 2.73296 0
      vertex 5.17021 3.28206 0
    endloop
  endfacet
  facet normal 0.904826 0.368737 0.21289
    outer loop
      vertex 5.39398 2.73296 0
      vertex 5.17021 -1.04807 7.5
      vertex 5.18198 -1.07695 7.5
    endloop
  endfacet
  facet normal 0.587786 -0.700629 -0.404508
    outer loop
      vertex 3.7608 -7.68698 4.22218
      vertex 3.53162 -5.44157 0
      vertex 3.7608 -5.2493 0
    endloop
  endfacet
  facet normal 0.587785 -0.70063 -0.404509
    outer loop
      vertex 3.53162 -5.44157 0
      vertex 3.16138 -8.06414 4.00442
      vertex 3.16138 -5.75218 0
    endloop
  endfacet
  facet normal 0.587785 -0.700629 -0.404509
    outer loop
      vertex 3.16138 -8.06414 4.00442
      vertex 3.53162 -5.44157 0
      vertex 3.7608 -7.68698 4.22218
    endloop
  endfacet
  facet normal 0.368125 -0.80521 -0.464888
    outer loop
      vertex 2.5121 -6.16434 0
      vertex 1.8232 -8.60947 3.68957
      vertex 2.06099 -6.37058 0
    endloop
  endfacet
  facet normal 0.368125 -0.80521 -0.464888
    outer loop
      vertex 1.8232 -8.60947 3.68957
      vertex 2.5121 -6.16434 0
      vertex 2.5121 -8.37326 3.82595
    endloop
  endfacet
  facet normal 0.481753 -0.758904 -0.438153
    outer loop
      vertex 3.16138 -5.75218 0
      vertex 2.5121 -8.37326 3.82595
      vertex 2.5121 -6.16434 0
    endloop
  endfacet
  facet normal 0.481753 -0.758904 -0.438153
    outer loop
      vertex 2.5121 -8.37326 3.82595
      vertex 3.16138 -5.75218 0
      vertex 3.16138 -8.06414 4.00442
    endloop
  endfacet
  facet normal -4.55775e-08 -0.500001 0.866025
    outer loop
      vertex -0.370463 -8.84947 3.55101
      vertex -3.16138 -8.06414 4.00442
      vertex -2.5121 -8.37326 3.82595
    endloop
  endfacet
  facet normal -5.59491e-07 -0.500002 0.866024
    outer loop
      vertex -0.370463 -8.84947 3.55101
      vertex -2.5121 -8.37326 3.82595
      vertex -1.8232 -8.60947 3.68957
    endloop
  endfacet
  facet normal -0.951056 -0.267617 -0.154509
    outer loop
      vertex -5.48568 -2.50793 0
      vertex -5.71464 -5.02069 5.76155
      vertex -5.71464 -1.69426 0
    endloop
  endfacet
  facet normal -0.951056 -0.267617 -0.154509
    outer loop
      vertex -5.71464 -5.02069 5.76155
      vertex -5.48568 -2.50793 0
      vertex -5.48568 -5.63095 5.40922
    endloop
  endfacet
  facet normal -0.998027 -0.054378 -0.0313951
    outer loop
      vertex -5.85348 -0.853862 0
      vertex -5.9 -3.75 6.49519
      vertex -5.9 2.71349e-07 0
    endloop
  endfacet
  facet normal -0.998027 -0.054378 -0.0313951
    outer loop
      vertex -5.9 -3.75 6.49519
      vertex -5.85348 -0.853862 0
      vertex -5.85348 -4.3904 6.12546
    endloop
  endfacet
  facet normal -1.4001e-05 -0.5 0.866025
    outer loop
      vertex -5.85348 -3.1096 6.86492
      vertex -5.9 -3.75 6.49519
      vertex -5.85348 -4.3904 6.12546
    endloop
  endfacet
  facet normal -0.951056 0.267617 0.154509
    outer loop
      vertex -5.71464 1.69426 0
      vertex -5.71464 -2.47931 7.22883
      vertex -5.5566 2.25589 0
    endloop
  endfacet
  facet normal 0.951056 0.267618 0.154509
    outer loop
      vertex 5.48568 -1.82219 7.5
      vertex 5.5566 2.25589 0
      vertex 5.48568 2.50793 0
    endloop
  endfacet
  facet normal 0.951056 0.267617 0.154509
    outer loop
      vertex 5.71464 -2.47931 7.22883
      vertex 5.48568 -1.82219 7.5
      vertex 5.53842 -2.00962 7.5
    endloop
  endfacet
  facet normal 0.951056 0.267617 0.154509
    outer loop
      vertex 5.48568 -1.82219 7.5
      vertex 5.71464 -2.47931 7.22883
      vertex 5.5566 2.25589 0
    endloop
  endfacet
  facet normal 0.904827 0.368736 0.21289
    outer loop
      vertex 5.18198 -1.07695 7.5
      vertex 5.48568 2.50793 0
      vertex 5.39398 2.73296 0
    endloop
  endfacet
  facet normal 0.904827 0.368735 0.212889
    outer loop
      vertex 5.48568 2.50793 0
      vertex 5.18198 -1.07695 7.5
      vertex 5.48568 -1.82219 7.5
    endloop
  endfacet
  facet normal -0.904827 0.368736 0.21289
    outer loop
      vertex -5.48568 2.50793 0
      vertex -5.18198 -1.07695 7.5
      vertex -5.39398 2.73296 0
    endloop
  endfacet
  facet normal -0.904827 0.368735 0.212889
    outer loop
      vertex -5.18198 -1.07695 7.5
      vertex -5.48568 2.50793 0
      vertex -5.48568 -1.82219 7.5
    endloop
  endfacet
  facet normal -0.951056 0.267618 0.154509
    outer loop
      vertex -5.5566 2.25589 0
      vertex -5.48568 -1.82219 7.5
      vertex -5.48568 2.50793 0
    endloop
  endfacet
  facet normal -0.951056 0.267617 0.154509
    outer loop
      vertex -5.71464 -2.47931 7.22883
      vertex -5.48568 -1.82219 7.5
      vertex -5.5566 2.25589 0
    endloop
  endfacet
  facet normal -0.951056 0.267617 0.154509
    outer loop
      vertex -5.48568 -1.82219 7.5
      vertex -5.71464 -2.47931 7.22883
      vertex -5.53842 -2.00962 7.5
    endloop
  endfacet
  facet normal -0.684547 0.631305 0.364484
    outer loop
      vertex -4.30091 4.66364 0
      vertex -4.24908 0.389718 7.5
      vertex -3.8659 5.13534 0
    endloop
  endfacet
  facet normal -0.684547 0.631305 0.364484
    outer loop
      vertex -4.24908 0.389718 7.5
      vertex -4.30091 4.66364 0
      vertex -4.30091 0.33351 7.5
    endloop
  endfacet
  facet normal 0.125334 -0.859196 -0.496057
    outer loop
      vertex 1.10555 -6.69206 0
      vertex 0.370463 -8.84947 3.55101
      vertex 0.370463 -6.79929 0
    endloop
  endfacet
  facet normal 0.125334 -0.859196 -0.496057
    outer loop
      vertex 0.370463 -8.84947 3.55101
      vertex 1.10555 -6.69206 0
      vertex 1.10555 -8.76904 3.59744
    endloop
  endfacet
  facet normal 0.248689 -0.838818 -0.484292
    outer loop
      vertex 1.8232 -6.47929 0
      vertex 1.10555 -8.76904 3.59744
      vertex 1.10555 -6.69206 0
    endloop
  endfacet
  facet normal 0.248689 -0.838818 -0.484292
    outer loop
      vertex 1.10555 -8.76904 3.59744
      vertex 1.8232 -6.47929 0
      vertex 1.8232 -8.60947 3.68957
    endloop
  endfacet
  facet normal -0.125334 -0.859196 -0.496057
    outer loop
      vertex -1.10555 -6.69206 0
      vertex -0.370463 -8.84947 3.55101
      vertex -1.10555 -8.76904 3.59744
    endloop
  endfacet
  facet normal -0.125334 -0.859196 -0.496057
    outer loop
      vertex -0.370463 -8.84947 3.55101
      vertex -1.10555 -6.69206 0
      vertex -0.370463 -6.79929 0
    endloop
  endfacet
  facet normal -0.982287 0.162277 0.0936906
    outer loop
      vertex -5.85348 0.853862 0
      vertex -5.71464 -2.47931 7.22883
      vertex -5.71464 1.69426 0
    endloop
  endfacet
  facet normal -0.982287 0.162277 0.0936906
    outer loop
      vertex -5.71464 -2.47931 7.22883
      vertex -5.85348 0.853862 0
      vertex -5.85348 -3.1096 6.86492
    endloop
  endfacet
  facet normal -1.14225e-06 -0.500005 0.866023
    outer loop
      vertex -0.370463 -8.84947 3.55101
      vertex -1.8232 -8.60947 3.68957
      vertex -1.10555 -8.76904 3.59744
    endloop
  endfacet
  facet normal -2.97041e-07 -0.5 0.866025
    outer loop
      vertex -5.53842 -2.00962 7.5
      vertex -5.71464 -2.47931 7.22883
      vertex -5.1371 -2.00962 7.5
    endloop
  endfacet
  facet normal -0.481753 0.758904 0.438154
    outer loop
      vertex -2.5121 6.16435 0
      vertex -3.16138 1.42205 7.5
      vertex -2.5121 1.83422 7.5
    endloop
  endfacet
  facet normal -0.481753 0.758904 0.438153
    outer loop
      vertex -3.16138 1.42205 7.5
      vertex -2.5121 6.16435 0
      vertex -3.16138 5.75218 0
    endloop
  endfacet
  facet normal -0.684547 0.631306 0.364485
    outer loop
      vertex -3.8659 5.13534 0
      vertex -3.7608 0.919173 7.5
      vertex -3.7608 5.2493 0
    endloop
  endfacet
  facet normal -0.684546 0.631306 0.364485
    outer loop
      vertex -3.7608 0.919173 7.5
      vertex -3.8659 5.13534 0
      vertex -4.24908 0.389718 7.5
    endloop
  endfacet
  facet normal 0 0 1
    outer loop
      vertex 5.1371 -2.00962 7.5
      vertex 5.48568 -1.82219 7.5
      vertex 5.18198 -1.07695 7.5
    endloop
  endfacet
  facet normal 0 0 1
    outer loop
      vertex 5.15448 -1.01946 7.5
      vertex 5.18198 -1.07695 7.5
      vertex 5.17021 -1.04807 7.5
    endloop
  endfacet
  facet normal 0 0 1
    outer loop
      vertex 5.18198 -1.07695 7.5
      vertex 5.15448 -1.01946 7.5
      vertex 5.1371 -2.00962 7.5
    endloop
  endfacet
  facet normal 0 0 1
    outer loop
      vertex 5.48568 -1.82219 7.5
      vertex 5.1371 -2.00962 7.5
      vertex 5.53842 -2.00962 7.5
    endloop
  endfacet
  facet normal 0 0 1
    outer loop
      vertex 4.7732 -0.325703 7.5
      vertex 5.1371 -2.00962 7.5
      vertex 5.15448 -1.01946 7.5
    endloop
  endfacet
  facet normal 0 0 1
    outer loop
      vertex 1.82774 -2.00962 7.5
      vertex 4.7732 -0.325703 7.5
      vertex 4.30091 0.33351 7.5
    endloop
  endfacet
  facet normal 0 0 1
    outer loop
      vertex 1.82774 -2.00962 7.5
      vertex 4.30091 0.33351 7.5
      vertex 4.24908 0.389718 7.5
    endloop
  endfacet
  facet normal 0 0 1
    outer loop
      vertex 1.82774 -2.00962 7.5
      vertex 4.24908 0.389718 7.5
      vertex 3.7608 0.919173 7.5
    endloop
  endfacet
  facet normal 0 0 1
    outer loop
      vertex 1.82774 -2.00962 7.5
      vertex 3.7608 0.919173 7.5
      vertex 3.16138 1.42205 7.5
    endloop
  endfacet
  facet normal 0 0 1
    outer loop
      vertex 1.82774 -2.00962 7.5
      vertex 3.16138 1.42205 7.5
      vertex 2.5121 1.83422 7.5
    endloop
  endfacet
  facet normal 0 0 1
    outer loop
      vertex 4.7732 -0.325703 7.5
      vertex 1.82774 -2.00962 7.5
      vertex 5.1371 -2.00962 7.5
    endloop
  endfacet
  facet normal 0 0 1
    outer loop
      vertex 1.8232 2.14917 7.5
      vertex 1.82774 -2.00962 7.5
      vertex 2.5121 1.83422 7.5
    endloop
  endfacet
  facet normal 0 0 1
    outer loop
      vertex 1.10555 2.36193 7.5
      vertex 1.82774 -2.00962 7.5
      vertex 1.8232 2.14917 7.5
    endloop
  endfacet
  facet normal 0 0 1
    outer loop
      vertex 0.370463 2.46916 7.5
      vertex 1.82774 -2.00962 7.5
      vertex 1.10555 2.36193 7.5
    endloop
  endfacet
  facet normal -0 0 1
    outer loop
      vertex -0.370463 2.46916 7.5
      vertex 1.82774 -2.00962 7.5
      vertex 0.370463 2.46916 7.5
    endloop
  endfacet
  facet normal 0 0 1
    outer loop
      vertex -1.82774 -2.00962 7.5
      vertex -0.370463 2.46916 7.5
      vertex -1.10555 2.36193 7.5
    endloop
  endfacet
  facet normal 0 0 1
    outer loop
      vertex -1.82774 -2.00962 7.5
      vertex -1.10555 2.36193 7.5
      vertex -1.8232 2.14917 7.5
    endloop
  endfacet
  facet normal 0 0 1
    outer loop
      vertex -0.370463 2.46916 7.5
      vertex -1.82774 -2.00962 7.5
      vertex 1.82774 -2.00962 7.5
    endloop
  endfacet
  facet normal -0 0 1
    outer loop
      vertex -2.5121 1.83422 7.5
      vertex -1.82774 -2.00962 7.5
      vertex -1.8232 2.14917 7.5
    endloop
  endfacet
  facet normal -0 0 1
    outer loop
      vertex -3.16138 1.42205 7.5
      vertex -1.82774 -2.00962 7.5
      vertex -2.5121 1.83422 7.5
    endloop
  endfacet
  facet normal -0 0 1
    outer loop
      vertex -3.7608 0.919173 7.5
      vertex -1.82774 -2.00962 7.5
      vertex -3.16138 1.42205 7.5
    endloop
  endfacet
  facet normal -0 0 1
    outer loop
      vertex -4.24908 0.389718 7.5
      vertex -1.82774 -2.00962 7.5
      vertex -3.7608 0.919173 7.5
    endloop
  endfacet
  facet normal -0 0 1
    outer loop
      vertex -4.30091 0.33351 7.5
      vertex -1.82774 -2.00962 7.5
      vertex -4.24908 0.389718 7.5
    endloop
  endfacet
  facet normal -0 0 1
    outer loop
      vertex -4.7732 -0.325703 7.5
      vertex -1.82774 -2.00962 7.5
      vertex -4.30091 0.33351 7.5
    endloop
  endfacet
  facet normal 0 0 1
    outer loop
      vertex -4.7732 -0.325703 7.5
      vertex -5.1371 -2.00962 7.5
      vertex -1.82774 -2.00962 7.5
    endloop
  endfacet
  facet normal -0 0 1
    outer loop
      vertex -5.15448 -1.01946 7.5
      vertex -5.1371 -2.00962 7.5
      vertex -4.7732 -0.325703 7.5
    endloop
  endfacet
  facet normal 0 0 1
    outer loop
      vertex -5.18198 -1.07695 7.5
      vertex -5.15448 -1.01946 7.5
      vertex -5.17021 -1.04807 7.5
    endloop
  endfacet
  facet normal 0 0 1
    outer loop
      vertex -5.15448 -1.01946 7.5
      vertex -5.18198 -1.07695 7.5
      vertex -5.1371 -2.00962 7.5
    endloop
  endfacet
  facet normal -0 0 1
    outer loop
      vertex -5.48568 -1.82219 7.5
      vertex -5.1371 -2.00962 7.5
      vertex -5.18198 -1.07695 7.5
    endloop
  endfacet
  facet normal 0 0 1
    outer loop
      vertex -5.1371 -2.00962 7.5
      vertex -5.48568 -1.82219 7.5
      vertex -5.53842 -2.00962 7.5
    endloop
  endfacet
  facet normal 0 0 -1
    outer loop
      vertex 5.88073 -0.353623 0
      vertex 5.8711 0.530434 0
      vertex 5.9 -3.00856e-07 0
    endloop
  endfacet
  facet normal 0 0 -1
    outer loop
      vertex -5.85348 -0.853862 0
      vertex 5.88073 -0.353623 0
      vertex 5.85348 -0.853862 0
    endloop
  endfacet
  facet normal 0 0 -1
    outer loop
      vertex 5.88073 -0.353623 0
      vertex -5.88201 0.330265 0
      vertex 5.8711 0.530434 0
    endloop
  endfacet
  facet normal 0 0 -1
    outer loop
      vertex -5.85348 -0.853862 0
      vertex 5.85348 -0.853862 0
      vertex 5.71464 -1.69426 0
    endloop
  endfacet
  facet normal -0 0 -1
    outer loop
      vertex 5.8711 0.530434 0
      vertex -5.88201 0.330265 0
      vertex 5.85348 0.853862 0
    endloop
  endfacet
  facet normal -0 0 -1
    outer loop
      vertex 5.85348 0.853862 0
      vertex -5.88201 0.330265 0
      vertex 5.71464 1.69426 0
    endloop
  endfacet
  facet normal 0 0 -1
    outer loop
      vertex -5.71464 -1.69426 0
      vertex 5.71464 -1.69426 0
      vertex 5.48568 -2.50793 0
    endloop
  endfacet
  facet normal 0 -0 -1
    outer loop
      vertex -5.71464 1.69426 0
      vertex 5.71464 1.69426 0
      vertex -5.88201 0.330265 0
    endloop
  endfacet
  facet normal 0 0 -1
    outer loop
      vertex 5.71464 1.69426 0
      vertex -5.71464 1.69426 0
      vertex 5.5566 2.25589 0
    endloop
  endfacet
  facet normal 0 0 -1
    outer loop
      vertex -5.48568 -2.50793 0
      vertex 5.48568 -2.50793 0
      vertex 5.17021 -3.28206 0
    endloop
  endfacet
  facet normal 0 -0 -1
    outer loop
      vertex -5.5566 2.25589 0
      vertex 5.5566 2.25589 0
      vertex -5.71464 1.69426 0
    endloop
  endfacet
  facet normal 0 0 -1
    outer loop
      vertex -5.48568 -2.50793 0
      vertex 5.17021 -3.28206 0
      vertex 4.95301 -3.67726 0
    endloop
  endfacet
  facet normal 0 0 -1
    outer loop
      vertex 5.5566 2.25589 0
      vertex 5.39398 2.73296 0
      vertex 5.48568 2.50793 0
    endloop
  endfacet
  facet normal 0 0 -1
    outer loop
      vertex 4.30091 -4.66364 0
      vertex 4.95301 -3.67726 0
      vertex 4.7732 -4.00442 0
    endloop
  endfacet
  facet normal 0 0 -1
    outer loop
      vertex 5.5566 2.25589 0
      vertex -5.5566 2.25589 0
      vertex 5.39398 2.73296 0
    endloop
  endfacet
  facet normal -0 0 -1
    outer loop
      vertex 4.95301 -3.67726 0
      vertex 4.30091 -4.66364 0
      vertex -4.95301 -3.67726 0
    endloop
  endfacet
  facet normal 0 -0 -1
    outer loop
      vertex -5.39398 2.73296 0
      vertex 5.39398 2.73296 0
      vertex -5.5566 2.25589 0
    endloop
  endfacet
  facet normal 0 0 -1
    outer loop
      vertex 5.39398 2.73296 0
      vertex -5.39398 2.73296 0
      vertex 5.17021 3.28206 0
    endloop
  endfacet
  facet normal 0 0 -1
    outer loop
      vertex 3.53162 -5.44157 0
      vertex 4.30091 -4.66364 0
      vertex 3.7608 -5.2493 0
    endloop
  endfacet
  facet normal -0 0 -1
    outer loop
      vertex 5.17021 3.28206 0
      vertex -5.39398 2.73296 0
      vertex 4.87124 3.82603 0
    endloop
  endfacet
  facet normal -0 0 -1
    outer loop
      vertex 4.30091 -4.66364 0
      vertex 3.53162 -5.44157 0
      vertex -4.95301 -3.67726 0
    endloop
  endfacet
  facet normal 0 0 -1
    outer loop
      vertex 2.06099 -6.37058 0
      vertex 3.53162 -5.44157 0
      vertex 3.16138 -5.75218 0
    endloop
  endfacet
  facet normal 0 -0 -1
    outer loop
      vertex 4.30091 4.66364 0
      vertex 4.87124 3.82603 0
      vertex -4.87124 3.82603 0
    endloop
  endfacet
  facet normal 0 0 -1
    outer loop
      vertex 2.06099 -6.37058 0
      vertex 3.16138 -5.75218 0
      vertex 2.5121 -6.16434 0
    endloop
  endfacet
  facet normal 0 0 -1
    outer loop
      vertex 4.87124 3.82603 0
      vertex 4.30091 4.66364 0
      vertex 4.7732 4.00442 0
    endloop
  endfacet
  facet normal -0 0 -1
    outer loop
      vertex 3.53162 -5.44157 0
      vertex 2.06099 -6.37058 0
      vertex -3.53162 -5.44157 0
    endloop
  endfacet
  facet normal 0 0 -1
    outer loop
      vertex 1.10555 -6.69206 0
      vertex 2.06099 -6.37058 0
      vertex 1.8232 -6.47929 0
    endloop
  endfacet
  facet normal -0 0 -1
    outer loop
      vertex 4.30091 4.66364 0
      vertex -4.87124 3.82603 0
      vertex 3.8659 5.13534 0
    endloop
  endfacet
  facet normal -0 0 -1
    outer loop
      vertex 2.06099 -6.37058 0
      vertex 1.10555 -6.69206 0
      vertex -2.06099 -6.37058 0
    endloop
  endfacet
  facet normal 0 -0 -1
    outer loop
      vertex -3.8659 5.13534 0
      vertex 3.8659 5.13534 0
      vertex -4.87124 3.82603 0
    endloop
  endfacet
  facet normal 0 0 -1
    outer loop
      vertex -2.06099 -6.37058 0
      vertex 1.10555 -6.69206 0
      vertex 0.370463 -6.79929 0
    endloop
  endfacet
  facet normal 0 -0 -1
    outer loop
      vertex 3.16138 5.75218 0
      vertex 3.8659 5.13534 0
      vertex -3.8659 5.13534 0
    endloop
  endfacet
  facet normal 0 0 -1
    outer loop
      vertex -2.06099 -6.37058 0
      vertex 0.370463 -6.79929 0
      vertex -0.370463 -6.79929 0
    endloop
  endfacet
  facet normal 0 0 -1
    outer loop
      vertex 3.8659 5.13534 0
      vertex 3.16138 5.75218 0
      vertex 3.7608 5.2493 0
    endloop
  endfacet
  facet normal 0 0 -1
    outer loop
      vertex -2.06099 -6.37058 0
      vertex -0.370463 -6.79929 0
      vertex -1.10555 -6.69206 0
    endloop
  endfacet
  facet normal -0 0 -1
    outer loop
      vertex 3.16138 5.75218 0
      vertex -3.8659 5.13534 0
      vertex 2.5121 6.16435 0
    endloop
  endfacet
  facet normal 0 0 -1
    outer loop
      vertex -2.06099 -6.37058 0
      vertex -1.10555 -6.69206 0
      vertex -1.8232 -6.47929 0
    endloop
  endfacet
  facet normal -0 0 -1
    outer loop
      vertex 2.5121 6.16435 0
      vertex -3.8659 5.13534 0
      vertex 1.8232 6.47929 0
    endloop
  endfacet
  facet normal 0 0 -1
    outer loop
      vertex 2.06099 -6.37058 0
      vertex -2.06099 -6.37058 0
      vertex -3.53162 -5.44157 0
    endloop
  endfacet
  facet normal 0 0 -1
    outer loop
      vertex -3.53162 -5.44157 0
      vertex -2.06099 -6.37058 0
      vertex -2.5121 -6.16434 0
    endloop
  endfacet
  facet normal -0 0 -1
    outer loop
      vertex 1.8232 6.47929 0
      vertex -3.8659 5.13534 0
      vertex 1.10555 6.69206 0
    endloop
  endfacet
  facet normal 0 0 -1
    outer loop
      vertex -3.53162 -5.44157 0
      vertex -2.5121 -6.16434 0
      vertex -3.16138 -5.75218 0
    endloop
  endfacet
  facet normal -0 0 -1
    outer loop
      vertex 1.10555 6.69206 0
      vertex -3.8659 5.13534 0
      vertex 0.370463 6.79929 0
    endloop
  endfacet
  facet normal 0 0 -1
    outer loop
      vertex 3.53162 -5.44157 0
      vertex -3.53162 -5.44157 0
      vertex -4.95301 -3.67726 0
    endloop
  endfacet
  facet normal 0 0 -1
    outer loop
      vertex -4.30091 -4.66364 0
      vertex -3.53162 -5.44157 0
      vertex -3.7608 -5.2493 0
    endloop
  endfacet
  facet normal -0 0 -1
    outer loop
      vertex 0.370463 6.79929 0
      vertex -3.8659 5.13534 0
      vertex -0.370463 6.79929 0
    endloop
  endfacet
  facet normal 0 0 -1
    outer loop
      vertex -3.16138 5.75218 0
      vertex -3.8659 5.13534 0
      vertex -3.7608 5.2493 0
    endloop
  endfacet
  facet normal 0 0 -1
    outer loop
      vertex -3.53162 -5.44157 0
      vertex -4.30091 -4.66364 0
      vertex -4.95301 -3.67726 0
    endloop
  endfacet
  facet normal 0 0 -1
    outer loop
      vertex 4.95301 -3.67726 0
      vertex -4.95301 -3.67726 0
      vertex -5.48568 -2.50793 0
    endloop
  endfacet
  facet normal 0 0 -1
    outer loop
      vertex -4.95301 -3.67726 0
      vertex -4.30091 -4.66364 0
      vertex -4.7732 -4.00442 0
    endloop
  endfacet
  facet normal 0 0 -1
    outer loop
      vertex -0.370463 6.79929 0
      vertex -3.8659 5.13534 0
      vertex -1.10555 6.69206 0
    endloop
  endfacet
  facet normal 0 0 -1
    outer loop
      vertex -4.30091 4.66364 0
      vertex -4.87124 3.82603 0
      vertex -4.7732 4.00442 0
    endloop
  endfacet
  facet normal 0 0 -1
    outer loop
      vertex -3.8659 5.13534 0
      vertex -4.87124 3.82603 0
      vertex -4.30091 4.66364 0
    endloop
  endfacet
  facet normal 0 0 -1
    outer loop
      vertex -5.48568 -2.50793 0
      vertex -4.95301 -3.67726 0
      vertex -5.17021 -3.28206 0
    endloop
  endfacet
  facet normal 0 0 -1
    outer loop
      vertex -1.8232 6.47929 0
      vertex -3.8659 5.13534 0
      vertex -2.5121 6.16435 0
    endloop
  endfacet
  facet normal 0 0 -1
    outer loop
      vertex -4.87124 3.82603 0
      vertex -5.39398 2.73296 0
      vertex -5.17021 3.28206 0
    endloop
  endfacet
  facet normal 0 0 -1
    outer loop
      vertex 5.48568 -2.50793 0
      vertex -5.48568 -2.50793 0
      vertex -5.71464 -1.69426 0
    endloop
  endfacet
  facet normal 0 0 -1
    outer loop
      vertex -2.5121 6.16435 0
      vertex -3.8659 5.13534 0
      vertex -3.16138 5.75218 0
    endloop
  endfacet
  facet normal 0 0 -1
    outer loop
      vertex -5.39398 2.73296 0
      vertex -5.5566 2.25589 0
      vertex -5.48568 2.50793 0
    endloop
  endfacet
  facet normal 0 0 -1
    outer loop
      vertex 5.71464 -1.69426 0
      vertex -5.71464 -1.69426 0
      vertex -5.85348 -0.853862 0
    endloop
  endfacet
  facet normal 0 0 -1
    outer loop
      vertex -1.10555 6.69206 0
      vertex -3.8659 5.13534 0
      vertex -1.8232 6.47929 0
    endloop
  endfacet
  facet normal -0 0 -1
    outer loop
      vertex 5.88073 -0.353623 0
      vertex -5.85348 -0.853862 0
      vertex -5.88201 0.330265 0
    endloop
  endfacet
  facet normal 0 -0 -1
    outer loop
      vertex -4.87124 3.82603 0
      vertex 4.87124 3.82603 0
      vertex -5.39398 2.73296 0
    endloop
  endfacet
  facet normal 0 0 -1
    outer loop
      vertex -5.71464 1.69426 0
      vertex -5.88201 0.330265 0
      vertex -5.85348 0.853862 0
    endloop
  endfacet
  facet normal 0 -0 -1
    outer loop
      vertex -5.88201 0.330265 0
      vertex -5.85348 -0.853862 0
      vertex -5.9 2.71349e-07 0
    endloop
  endfacet
endsolid OpenSCAD_Model
